<?xml version="1.0" encoding="utf-8"?>
<!-- Generator: Adobe Illustrator 18.0.0, SVG Export Plug-In . SVG Version: 6.00 Build 0)  -->
<!DOCTYPE svg PUBLIC "-//W3C//DTD SVG 1.1//EN" "http://www.w3.org/Graphics/SVG/1.1/DTD/svg11.dtd">
<svg version="1.1" id="图层_1" xmlns="http://www.w3.org/2000/svg" xmlns:xlink="http://www.w3.org/1999/xlink" x="0px" y="0px"
	 viewBox="0 0 59.5 36.8" enable-background="new 0 0 59.5 36.8" xml:space="preserve">
<path fill-rule="evenodd" clip-rule="evenodd" fill="#DC3125" d="M28.5,15.7L28.5,15.7c-0.3,0-0.6-0.5-0.7-0.7
	c-0.1-0.1-0.2-0.3-0.2-0.5c0-0.1-0.1-0.1-0.1-0.3c0-0.1,0-0.2-0.1-0.2h0c0,0-0.1,0-0.1,0.1l0.1,1.3l0,0v0.2c0,0-0.1,0.3-0.1,0.3
	c0,0.1-0.1,0.2-0.2,0.2c-0.6,0-1.6-1.9-1.8-1.9c0,0-0.1,0-0.1,0.1c0,0.1,0.3,0.7,0.4,0.8c0.1,0.3,0.2,0.6,0.4,0.9
	c0.2,0.5,0.4,1.3,0.5,2c0.2,1-0.2,1.4,0.8,1.7c0.5,0.2,1.5,0.3,2.2,0.3h0.4c0.8,0,1.6-0.1,2.2-0.3c1.1-0.3,0.7-0.6,0.9-1.6
	c0.1-0.7,0.3-1.4,0.5-2c0.1-0.3,0.2-0.6,0.4-0.9c0-0.1,0.4-0.8,0.4-0.9c0,0,0-0.1-0.1-0.1c-0.1,0-1.1,1.9-1.8,1.9
	c-0.2,0-0.3-0.3-0.3-0.5v0c0-0.2,0-0.6,0-0.8c0-0.1,0.2-0.7,0-0.7h0c-0.1,0-0.2,0.4-0.2,0.5c0,0.2-0.1,0.3-0.2,0.5
	c-0.1,0.2-0.4,0.7-0.7,0.7h0c-0.5,0-0.8-1-0.9-1.4c-0.1-0.3-0.2-0.7-0.2-1c0-0.1,0-0.4-0.1-0.5c0-0.1,0-0.4-0.1-0.4
	c-0.3,0-0.2,0.7-0.2,1c0,0.3-0.1,0.7-0.2,1C29.3,14.7,29,15.7,28.5,15.7L28.5,15.7z M29.4,11.8L29.4,11.8c0,0.3,0.2,0.4,0.4,0.4h0
	c0.2,0,0.4-0.2,0.4-0.3v-0.1c0-0.2-0.2-0.3-0.3-0.3h-0.1C29.5,11.5,29.4,11.6,29.4,11.8L29.4,11.8z M26.8,13.6
	c0-0.2,0.2-0.4,0.3-0.4h0.1c0.1,0,0.3,0.2,0.3,0.4v0c0,0.2-0.2,0.4-0.3,0.4h-0.1C26.9,14,26.8,13.8,26.8,13.6L26.8,13.6L26.8,13.6z
	 M34.1,13.7c0-0.2,0.2-0.3,0.4-0.3c0.2,0,0.4,0.2,0.4,0.3v0.1c0,0.1-0.2,0.3-0.4,0.3h-0.1C34.3,14.1,34.1,13.9,34.1,13.7L34.1,13.7
	L34.1,13.7z M32,13.6c0-0.1,0.2-0.3,0.3-0.3h0.1c0.1,0,0.3,0.2,0.3,0.3v0.1c0,0.2-0.2,0.4-0.3,0.4h-0.1C32.1,14,32,13.8,32,13.6
	L32,13.6L32,13.6z M24.7,13.8c0-0.2,0.2-0.4,0.4-0.4c0.2,0,0.4,0.2,0.4,0.4v0.1c0,0.1-0.2,0.3-0.3,0.3H25
	C24.8,14.2,24.7,14,24.7,13.8L24.7,13.8L24.7,13.8z M26.8,18.5c0-0.3,0.9-0.6,1.2-0.7c0.5-0.1,1.1-0.2,1.7-0.2c0.3,0,0.6,0,0.9,0.1
	c0.3,0,0.5,0.1,0.8,0.2c0.3,0.1,1.2,0.4,1.2,0.7v0.1c0,0.3-0.8,0.5-1.1,0.6c-0.3,0.1-1.1,0.2-1.5,0.2h-0.6c-0.4,0-1.2-0.1-1.6-0.2
	C27.6,19.1,26.8,18.8,26.8,18.5L26.8,18.5z"/>
<path fill="#838281" d="M27.3,22.1h2c0,0.2,0,0.4,0,0.5c0,0.4-0.2,0.6-0.6,0.6c-0.1,0-0.3,0-0.5,0c0-0.1,0-0.2-0.1-0.3
	c0.2,0,0.4,0,0.5,0c0.2,0,0.4-0.1,0.4-0.3c0-0.1,0-0.1,0-0.2h-1.4v1.2h1.7v0.2c-0.1,0.5-0.3,0.9-0.6,1.2c0.2,0.2,0.5,0.4,0.9,0.5
	c-0.1,0.1-0.2,0.2-0.2,0.3c-0.3-0.2-0.6-0.3-0.8-0.6c-0.2,0.2-0.4,0.4-0.7,0.5c-0.1-0.1-0.1-0.2-0.2-0.3c0.3-0.1,0.5-0.3,0.7-0.5
	c-0.3-0.3-0.4-0.7-0.5-1.2h-0.2v2h-0.3V22.1L27.3,22.1z M25.9,22.1H27v3.2c0,0.3-0.1,0.4-0.4,0.4c-0.1,0-0.3,0-0.4,0
	c0-0.1,0-0.2,0-0.3c0.1,0,0.3,0,0.4,0c0.1,0,0.2-0.1,0.2-0.2v-0.9h-0.6c0,0.6-0.1,1.1-0.3,1.4c-0.1-0.1-0.1-0.2-0.2-0.2
	c0.2-0.3,0.3-0.7,0.3-1.2V22.1L25.9,22.1z M29,23.8h-0.9c0.1,0.4,0.2,0.7,0.4,1C28.8,24.5,28.9,24.2,29,23.8L29,23.8z M26.1,24.2
	h0.6v-0.8h-0.6V24.2L26.1,24.2z M26.7,22.4h-0.6v0.8h0.6V22.4L26.7,22.4z M31.1,21.8l0.3,0.1c-0.1,0.1-0.1,0.2-0.2,0.3h2.2v0.3
	c-0.2,0.3-0.6,0.6-1,0.8c0.4,0.2,1,0.3,1.6,0.3c-0.1,0.1-0.2,0.2-0.2,0.3c-0.7-0.1-1.3-0.2-1.7-0.5c-0.5,0.2-1.2,0.4-1.9,0.5
	c0-0.1-0.1-0.2-0.2-0.3c0.7-0.1,1.2-0.2,1.7-0.4c-0.3-0.2-0.5-0.4-0.7-0.7c-0.2,0.2-0.4,0.5-0.7,0.7c-0.1-0.1-0.2-0.2-0.2-0.2
	C30.5,22.7,30.8,22.3,31.1,21.8L31.1,21.8z M30.2,24.2v0.3h1.1c-0.1,0.5-0.6,0.9-1.4,1.1c0.1,0.1,0.1,0.2,0.2,0.3
	c0.9-0.3,1.3-0.8,1.5-1.4H33c0,0.2,0,0.4-0.1,0.6c0,0.2-0.1,0.3-0.4,0.3c-0.2,0-0.5,0-0.8,0c0,0.1,0,0.2,0.1,0.3c0.3,0,0.6,0,0.7,0
	c0.4,0,0.6-0.2,0.7-0.6c0-0.2,0-0.5,0.1-1h-1.6c0-0.1,0-0.3,0.1-0.4h-0.3c0,0.2,0,0.3,0,0.4H30.2L30.2,24.2z M32.9,22.5h-1.8
	c0.2,0.3,0.5,0.5,0.8,0.6C32.4,23,32.7,22.8,32.9,22.5z"/>
</svg>
