<?xml version="1.0" encoding="utf-8"?>
<!-- Generator: Adobe Illustrator 18.0.0, SVG Export Plug-In . SVG Version: 6.00 Build 0)  -->
<!DOCTYPE svg PUBLIC "-//W3C//DTD SVG 1.1//EN" "http://www.w3.org/Graphics/SVG/1.1/DTD/svg11.dtd">
<svg version="1.1" id="图层_1" xmlns="http://www.w3.org/2000/svg" xmlns:xlink="http://www.w3.org/1999/xlink" x="0px" y="0px"
	 viewBox="0 0 59.5 36.8" enable-background="new 0 0 59.5 36.8" xml:space="preserve">
<path fill-rule="evenodd" clip-rule="evenodd" fill="#DC3125" d="M34.1,15.1c0,1.3,0,2.7,0,4c0,0.9-0.1,0.8-0.8,0.8c0,0,0,0-0.1,0
	c-2.1,0-4.2,0-6.3,0c0,0-0.1,0-0.1,0c-0.5,0-0.6-0.1-0.6-0.8c0-1.3,0-2.7,0-4c-0.5,0-0.9,0-1.4,0c1.8-1.3,3.6-2.6,5.4-3.9
	c1.7,1.3,3.4,2.6,5.2,3.9C34.9,15.1,34.5,15.1,34.1,15.1L34.1,15.1z M32.3,19.6c0-0.8,0-1.6,0-2.4c-0.7-0.7-1.4-1.5-2.2-2.2
	c-0.8,0.7-1.5,1.5-2.3,2.2c0,0.8,0,1.6,0,2.4C29.4,19.6,30.9,19.6,32.3,19.6z"/>
<path fill="#838281" d="M26,25.3h1.8v-1.2h-1.5v-0.3h1.5v-0.9h-1.6v-0.3h3.6v0.3h-1.6v0.9h1.5v0.3h-1.5v1.2h1.8v0.3H26V25.3L26,25.3
	z M27.6,22l0.3-0.2c0.2,0.2,0.3,0.4,0.4,0.6L28,22.6C27.8,22.3,27.7,22.1,27.6,22L27.6,22z M30.8,22.9H32c0-0.1,0.1-0.3,0.1-0.5
	h-1.7v-0.3h3.8v0.3h-1.8c-0.1,0.2-0.1,0.4-0.2,0.5h1.5v1.9h-0.3v-1.6h-2.3v1.6h-0.3V22.9L30.8,22.9z M30.3,25.5
	c0.1,0.1,0.2,0.2,0.2,0.3c0.6-0.1,1.1-0.3,1.4-0.6c0.1-0.1,0.3-0.3,0.4-0.4c0.7,0.3,1.2,0.6,1.8,0.9l0.2-0.3
	c-0.6-0.3-1.2-0.6-1.8-0.9c0.1-0.2,0.1-0.4,0.1-0.7v-0.5h-0.3v0.4c0,0.5-0.1,0.9-0.4,1.1C31.5,25.2,31,25.4,30.3,25.5z"/>
</svg>
