<?xml version="1.0" encoding="utf-8"?>
<!-- Generator: Adobe Illustrator 18.0.0, SVG Export Plug-In . SVG Version: 6.00 Build 0)  -->
<!DOCTYPE svg PUBLIC "-//W3C//DTD SVG 1.1//EN" "http://www.w3.org/Graphics/SVG/1.1/DTD/svg11.dtd">
<svg version="1.1" id="图层_1" xmlns="http://www.w3.org/2000/svg" xmlns:xlink="http://www.w3.org/1999/xlink" x="0px" y="0px"
	 viewBox="0 0 59.5 36.8" enable-background="new 0 0 59.5 36.8" xml:space="preserve">
<path fill="#838281" d="M27.8,25.3c0.4-0.2,0.7-0.4,1-0.6c-0.1-0.4-0.2-0.8-0.2-1.3h-1v0.7c0.3,0,0.5-0.1,0.8-0.2c0,0.1,0,0.2,0,0.3
	c-0.3,0.1-0.6,0.1-0.8,0.2v0.9c0,0.3-0.1,0.5-0.4,0.5c-0.2,0-0.4,0-0.5,0c0-0.1,0-0.2-0.1-0.3c0.2,0,0.4,0,0.5,0
	c0.1,0,0.2-0.1,0.2-0.2v-0.8c-0.3,0.1-0.5,0.1-0.8,0.2l-0.1-0.3c0.3,0,0.6-0.1,0.9-0.1v-0.7h-0.9v-0.3h0.9v-0.6
	c-0.2,0-0.4,0.1-0.7,0.1c0-0.1,0-0.2-0.1-0.3c0.7-0.1,1.2-0.1,1.7-0.2l0.1,0.3c-0.2,0-0.4,0.1-0.7,0.1v0.6h1c0-0.3,0-0.7-0.1-1.2
	h0.3c0,0.4,0,0.8,0,1.2h1.5v0.3h-1.4c0,0.4,0.1,0.8,0.2,1.1c0.3-0.3,0.5-0.6,0.8-0.9l0.3,0.2c-0.3,0.4-0.6,0.7-0.9,1
	c0.1,0.2,0.2,0.3,0.3,0.5c0.1,0.2,0.3,0.2,0.4,0.2c0.1,0,0.1,0,0.1-0.1c0-0.1,0.1-0.4,0.1-0.7c0.1,0.1,0.2,0.1,0.3,0.1
	c0,0.3-0.1,0.5-0.1,0.7c-0.1,0.2-0.2,0.3-0.4,0.3c-0.2,0-0.4-0.1-0.7-0.4c-0.1-0.1-0.2-0.3-0.2-0.4c-0.3,0.2-0.6,0.4-0.9,0.6
	C27.9,25.5,27.9,25.4,27.8,25.3L27.8,25.3z M29.2,22.3c0.2,0.2,0.5,0.4,0.7,0.6l0.2-0.2c-0.2-0.2-0.5-0.4-0.7-0.6L29.2,22.3
	L29.2,22.3z M30.9,22.6h0.4c0.1-0.2,0.2-0.5,0.2-0.7l0.3,0.1c-0.1,0.2-0.2,0.4-0.2,0.6h0.8v3.2h-0.3v-0.3h-0.9v0.3h-0.3V22.6
	L30.9,22.6z M32.5,23.4c0.3-0.4,0.5-0.9,0.6-1.5l0.3,0.1c-0.1,0.2-0.1,0.4-0.2,0.6h1.3c0,1.4-0.1,2.2-0.1,2.6c0,0.4-0.2,0.6-0.7,0.6
	c-0.2,0-0.5,0-0.7,0c0-0.1,0-0.3-0.1-0.4h0c0.3,0,0.5,0.1,0.7,0.1c0.2,0,0.4-0.1,0.4-0.4c0-0.4,0.1-1.1,0.1-2.2h-1.1
	c-0.1,0.3-0.2,0.5-0.4,0.7C32.7,23.5,32.6,23.4,32.5,23.4L32.5,23.4z M31.2,25.1h0.9v-1h-0.9V25.1L31.2,25.1z M32.1,22.9h-0.9v1h0.9
	V22.9L32.1,22.9z M32.8,23.7c0.2,0.3,0.5,0.6,0.7,0.9l0.3-0.2c-0.2-0.3-0.4-0.6-0.7-0.9L32.8,23.7z"/>
<path fill-rule="evenodd" clip-rule="evenodd" fill="#DC3125" d="M28.4,13.6v0.5c0,1,0.9,2.6,1.8,2.6h0.5c1.1,0,1.8-1.6,1.8-2.8
	v-0.3c0-1.2-0.8-2.1-2.1-2.1C29.2,11.6,28.4,12.4,28.4,13.6L28.4,13.6z M26.4,19.9c0.1-1.1,1.2-3.9,2.5-2.8c1.4,1.3,2.3,1,3.2-0.1
	c0.9-0.9,2.3,1.5,2.3,3C31.7,19.9,29.2,19.9,26.4,19.9z"/>
</svg>
