<?xml version="1.0" encoding="utf-8"?>
<!-- Generator: Adobe Illustrator 18.0.0, SVG Export Plug-In . SVG Version: 6.00 Build 0)  -->
<!DOCTYPE svg PUBLIC "-//W3C//DTD SVG 1.1//EN" "http://www.w3.org/Graphics/SVG/1.1/DTD/svg11.dtd">
<svg version="1.1" id="图层_1" xmlns="http://www.w3.org/2000/svg" xmlns:xlink="http://www.w3.org/1999/xlink" x="0px" y="0px"
	 viewBox="0 0 59.5 36.8" enable-background="new 0 0 59.5 36.8" xml:space="preserve">
<g>
	<path fill-rule="evenodd" clip-rule="evenodd" fill="#DC3125" d="M32.7,13.6c0.3-0.4,1-0.4,1-0.7c0-0.9-2.4-1.9-3.6-1.9h-0.8
		c-1.1,0-3.3,1-3.3,1.7c0,0.7,1.4,0.6,1.4,1.4v3H32v-3C32,13.8,32.4,13.7,32.7,13.6z"/>
	<path fill-rule="evenodd" clip-rule="evenodd" fill="#DC3125" d="M32.7,13.6l-0.4,0.3v3.4h-5v-3.2c0-1-2.3-1.2-2.3-0.2v0.2
		c0,0.4,0.6,0.8,1,0.9v4.3h0.6v0.6h0.7v-0.6h5.3v0.6h0.7v-0.6h0.6V15c0.6,0,1-0.5,1-1.1c0-0.4-0.4-0.6-0.8-0.6h-0.4
		C33,13.4,33.1,13.6,32.7,13.6z"/>
</g>
<path fill="#838281" d="M26.4,22.4v1.1c0,0.6,0,1.1-0.1,1.4c-0.1,0.3-0.2,0.6-0.4,0.9c-0.1-0.1-0.2-0.2-0.2-0.3
	c0.1-0.2,0.3-0.5,0.3-0.8c0.1-0.3,0.1-0.7,0.1-1.2v-1.4h3v2.2c0,0.5,0,0.8,0.1,1c0,0.1,0.1,0.1,0.1,0.1c0,0,0.1,0,0.1-0.1
	c0-0.1,0-0.4,0.1-0.7c0.1,0,0.2,0.1,0.3,0.1c0,0.3-0.1,0.5-0.1,0.7c0,0.3-0.2,0.4-0.4,0.4c-0.1,0-0.3-0.1-0.4-0.3
	c-0.1-0.2-0.1-0.6-0.1-1.2v-1.9H26.4L26.4,22.4z M26.6,22.9c0.2,0.3,0.5,0.7,0.7,1.1c-0.3,0.4-0.6,0.9-0.9,1.2
	c0.1,0.1,0.2,0.1,0.3,0.2c0.3-0.4,0.6-0.8,0.8-1.2c0.2,0.3,0.5,0.7,0.7,1.1l0.3-0.2c-0.3-0.4-0.5-0.8-0.8-1.2
	c0.2-0.4,0.5-0.8,0.7-1.2l-0.3-0.1c-0.2,0.4-0.4,0.7-0.6,1c-0.2-0.3-0.5-0.6-0.7-1L26.6,22.9L26.6,22.9z M31.4,23.2
	c0.3-0.4,0.6-0.9,0.8-1.3l0.3,0.1c-0.1,0.1-0.1,0.2-0.2,0.4h1.4v0.3c-0.2,0.3-0.4,0.6-0.8,0.9c0.3,0.2,0.6,0.3,1,0.4
	c-0.1,0.1-0.1,0.2-0.1,0.3c-0.4-0.1-0.8-0.3-1.1-0.5c-0.4,0.2-0.8,0.4-1.3,0.6c0-0.1-0.1-0.2-0.1-0.3c0.4-0.1,0.8-0.3,1.2-0.5
	c-0.2-0.2-0.4-0.4-0.5-0.6c-0.1,0.2-0.2,0.4-0.4,0.5C31.5,23.3,31.4,23.3,31.4,23.2L31.4,23.2z M31.7,24.3v1.6H32v-0.2h1.4v0.2h0.3
	v-1.6H31.7L31.7,24.3z M30,24.4c0.1,0.1,0.1,0.2,0.1,0.4c0.2-0.3,0.3-0.6,0.5-1v2.1h0.3v-2.3c0.1,0.1,0.2,0.3,0.4,0.4l0.2-0.2
	c-0.2-0.2-0.3-0.3-0.5-0.5l-0.1,0.1V23h0.5v-0.3h-0.5v-0.8h-0.3v0.8H30V23h0.6C30.5,23.5,30.3,24,30,24.4L30,24.4z M33.3,24.6v0.8
	H32v-0.8H33.3L33.3,24.6z M33.3,22.6h-1.2c0.2,0.3,0.3,0.5,0.6,0.7C33,23.1,33.2,22.9,33.3,22.6z"/>
</svg>
