<?xml version="1.0" encoding="utf-8"?>
<!-- Generator: Adobe Illustrator 18.0.0, SVG Export Plug-In . SVG Version: 6.00 Build 0)  -->
<!DOCTYPE svg PUBLIC "-//W3C//DTD SVG 1.1//EN" "http://www.w3.org/Graphics/SVG/1.1/DTD/svg11.dtd">
<svg version="1.1" id="图层_1" xmlns="http://www.w3.org/2000/svg" xmlns:xlink="http://www.w3.org/1999/xlink" x="0px" y="0px"
	 viewBox="0 0 59.5 36.8" enable-background="new 0 0 59.5 36.8" xml:space="preserve">
<path fill="#9FA0A0" d="M27.8,24.7c0.4-0.2,0.7-0.4,1-0.6c-0.1-0.4-0.2-0.8-0.2-1.3h-1v0.7c0.3,0,0.5-0.1,0.8-0.2c0,0.1,0,0.2,0,0.3
	c-0.3,0.1-0.6,0.1-0.8,0.2v0.9c0,0.3-0.1,0.5-0.4,0.5c-0.2,0-0.4,0-0.5,0c0-0.1,0-0.2-0.1-0.3c0.2,0,0.4,0,0.5,0
	c0.1,0,0.2-0.1,0.2-0.2v-0.8C27,23.9,26.7,24,26.5,24l-0.1-0.3c0.3,0,0.6-0.1,0.9-0.1v-0.7h-0.9v-0.3h0.9v-0.6
	C27,22,26.8,22,26.6,22c0-0.1,0-0.2-0.1-0.3c0.7-0.1,1.2-0.1,1.7-0.2l0.1,0.3c-0.2,0-0.4,0.1-0.7,0.1v0.6h1c0-0.3,0-0.7-0.1-1.2h0.3
	c0,0.4,0,0.8,0,1.2h1.5v0.3h-1.4c0,0.4,0.1,0.8,0.2,1.1c0.3-0.3,0.5-0.6,0.8-0.9l0.3,0.2c-0.3,0.4-0.6,0.7-0.9,1
	c0.1,0.2,0.2,0.3,0.3,0.5c0.1,0.2,0.3,0.2,0.4,0.2c0.1,0,0.1,0,0.1-0.1c0-0.1,0.1-0.4,0.1-0.7c0.1,0.1,0.2,0.1,0.3,0.1
	c0,0.3-0.1,0.5-0.1,0.7c-0.1,0.2-0.2,0.3-0.4,0.3c-0.2,0-0.4-0.1-0.7-0.4c-0.1-0.1-0.2-0.3-0.2-0.4c-0.3,0.2-0.6,0.4-0.9,0.6
	C27.9,24.9,27.9,24.8,27.8,24.7L27.8,24.7z M29.2,21.7c0.2,0.2,0.5,0.4,0.7,0.6l0.2-0.2c-0.2-0.2-0.5-0.4-0.7-0.6L29.2,21.7
	L29.2,21.7z M30.9,22h0.4c0.1-0.2,0.2-0.5,0.2-0.7l0.3,0.1c-0.1,0.2-0.2,0.4-0.2,0.6h0.8v3.2h-0.3v-0.3h-0.9v0.3h-0.3V22L30.9,22z
	 M32.5,22.8c0.3-0.4,0.5-0.9,0.6-1.5l0.3,0.1c-0.1,0.2-0.1,0.4-0.2,0.6h1.3c0,1.4-0.1,2.2-0.1,2.6c0,0.4-0.2,0.6-0.7,0.6
	c-0.2,0-0.5,0-0.7,0c0-0.1,0-0.3-0.1-0.4h0c0.3,0,0.5,0.1,0.7,0.1c0.2,0,0.4-0.1,0.4-0.4c0-0.4,0.1-1.1,0.1-2.2h-1.1
	c-0.1,0.3-0.2,0.5-0.4,0.7C32.7,22.9,32.6,22.9,32.5,22.8L32.5,22.8z M31.2,24.6h0.9v-1h-0.9V24.6L31.2,24.6z M32.1,22.3h-0.9v1h0.9
	V22.3L32.1,22.3z M32.8,23.1c0.2,0.3,0.5,0.6,0.7,0.9l0.3-0.2c-0.2-0.3-0.4-0.6-0.7-0.9L32.8,23.1z"/>
<path fill-rule="evenodd" clip-rule="evenodd" fill="#C9CACA" d="M28.7,13.4v0.5c0,0.9,0.8,2.3,1.6,2.3h0.5c1,0,1.6-1.4,1.6-2.5
	v-0.2c0-1.1-0.7-1.8-1.8-1.8C29.4,11.6,28.7,12.3,28.7,13.4L28.7,13.4z M26.9,19c0.1-1,1-3.5,2.3-2.5c1.2,1.2,2.1,0.9,2.8-0.1
	c0.8-0.8,2,1.3,2.1,2.7C31.6,19,29.3,19,26.9,19z"/>
</svg>
