<?xml version="1.0" encoding="utf-8"?>
<!-- Generator: Adobe Illustrator 18.0.0, SVG Export Plug-In . SVG Version: 6.00 Build 0)  -->
<!DOCTYPE svg PUBLIC "-//W3C//DTD SVG 1.1//EN" "http://www.w3.org/Graphics/SVG/1.1/DTD/svg11.dtd">
<svg version="1.1" id="图层_1" xmlns="http://www.w3.org/2000/svg" xmlns:xlink="http://www.w3.org/1999/xlink" x="0px" y="0px"
	 viewBox="0 0 59.5 36.8" enable-background="new 0 0 59.5 36.8" xml:space="preserve">
<path fill-rule="evenodd" clip-rule="evenodd" fill="#C9CACA" d="M28.3,16.4L28.3,16.4c-0.3,0-0.7-0.6-0.8-0.8
	c-0.1-0.2-0.2-0.4-0.2-0.5c0-0.1-0.1-0.2-0.1-0.3c0-0.1,0-0.2-0.2-0.2h0c0,0-0.1,0.1-0.1,0.1l0.2,1.4l0,0v0.2c0,0.1-0.1,0.3-0.1,0.3
	c0,0.1-0.1,0.2-0.2,0.2c-0.6,0-1.8-2.1-1.9-2.1c0,0-0.1,0-0.1,0.1c0,0.1,0.4,0.8,0.4,0.9c0.1,0.3,0.3,0.6,0.4,1
	c0.2,0.6,0.5,1.5,0.6,2.2c0.2,1.1-0.2,1.5,0.9,1.8c0.6,0.2,1.6,0.3,2.4,0.3h0.4c0.9,0,1.8-0.1,2.5-0.3c1.3-0.3,0.8-0.6,1-1.8
	c0.1-0.8,0.3-1.5,0.6-2.2c0.1-0.3,0.2-0.7,0.4-1c0.1-0.1,0.4-0.9,0.4-0.9c0,0,0-0.1-0.1-0.1c-0.1,0-1.3,2.1-2,2.1
	c-0.2,0-0.3-0.4-0.3-0.6v0c0-0.3,0-0.6,0-0.9c0-0.1,0.2-0.7,0-0.7h0c-0.1,0-0.2,0.4-0.2,0.5c-0.1,0.2-0.2,0.4-0.2,0.5
	c-0.1,0.2-0.4,0.8-0.7,0.8h0c-0.6,0-0.9-1.1-1-1.6C30.1,14.4,30,14,30,13.6c0-0.1,0-0.5-0.1-0.6c0-0.1,0-0.5-0.2-0.5
	c-0.3,0-0.2,0.8-0.2,1.1c0,0.4-0.1,0.7-0.2,1.1C29.2,15.2,28.9,16.4,28.3,16.4L28.3,16.4z M29.3,12L29.3,12c0,0.3,0.2,0.5,0.4,0.5h0
	c0.2,0,0.4-0.2,0.4-0.3V12c0-0.2-0.2-0.4-0.3-0.4h-0.1C29.5,11.7,29.3,11.9,29.3,12L29.3,12z M26.5,14c0-0.2,0.2-0.4,0.4-0.4H27
	c0.2,0,0.4,0.2,0.4,0.4v0c0,0.2-0.2,0.4-0.4,0.4h-0.1C26.7,14.4,26.5,14.2,26.5,14L26.5,14L26.5,14z M34.5,14.1
	c0-0.2,0.2-0.4,0.4-0.4c0.2,0,0.4,0.2,0.4,0.4v0.1c0,0.1-0.2,0.3-0.4,0.3h-0.1C34.7,14.6,34.5,14.4,34.5,14.1L34.5,14.1L34.5,14.1z
	 M32.2,14c0-0.1,0.2-0.4,0.4-0.4h0.1c0.2,0,0.4,0.2,0.4,0.4v0.1c0,0.2-0.2,0.4-0.4,0.4h-0.1C32.4,14.4,32.2,14.2,32.2,14L32.2,14
	L32.2,14z M24.2,14.2c0-0.2,0.2-0.4,0.4-0.4c0.2,0,0.4,0.2,0.4,0.4v0.1c0,0.1-0.2,0.4-0.3,0.4h-0.2C24.3,14.6,24.2,14.4,24.2,14.2
	L24.2,14.2L24.2,14.2z M26.5,19.4c0-0.3,1-0.7,1.4-0.8c0.5-0.1,1.2-0.2,1.9-0.2c0.4,0,0.7,0,1,0.1c0.3,0.1,0.6,0.1,0.9,0.2
	C32,18.6,33,19,33,19.3v0.1c0,0.3-0.9,0.6-1.2,0.7c-0.4,0.1-1.2,0.2-1.7,0.2h-0.7c-0.5,0-1.3-0.1-1.7-0.2
	C27.4,20,26.5,19.7,26.5,19.4L26.5,19.4z"/>
<path fill="#9FA0A0" d="M27.4,22.6h2c0,0.2,0,0.4,0,0.5c0,0.4-0.2,0.6-0.6,0.6c-0.1,0-0.3,0-0.5,0c0-0.1,0-0.2-0.1-0.3
	c0.2,0,0.4,0,0.5,0c0.2,0,0.4-0.1,0.4-0.3c0-0.1,0-0.1,0-0.2h-1.4V24h1.7v0.2c-0.1,0.5-0.3,0.9-0.6,1.2c0.2,0.2,0.5,0.4,0.9,0.5
	c-0.1,0.1-0.2,0.2-0.2,0.3c-0.3-0.2-0.6-0.3-0.8-0.6c-0.2,0.2-0.4,0.4-0.7,0.5c-0.1-0.1-0.1-0.2-0.2-0.3c0.3-0.1,0.5-0.3,0.7-0.5
	c-0.3-0.3-0.4-0.7-0.5-1.2h-0.2v2h-0.3V22.6L27.4,22.6z M25.9,22.6H27v3.2c0,0.3-0.1,0.4-0.4,0.4c-0.1,0-0.3,0-0.4,0
	c0-0.1,0-0.2,0-0.3c0.1,0,0.3,0,0.4,0c0.1,0,0.2-0.1,0.2-0.2v-0.9h-0.6c0,0.6-0.1,1.1-0.3,1.4c-0.1-0.1-0.1-0.2-0.2-0.2
	c0.2-0.3,0.3-0.7,0.3-1.2V22.6L25.9,22.6z M29,24.3h-0.9c0.1,0.4,0.2,0.7,0.4,1C28.8,25,28.9,24.6,29,24.3L29,24.3z M26.2,24.6h0.6
	v-0.8h-0.6V24.6L26.2,24.6z M26.7,22.8h-0.6v0.8h0.6V22.8L26.7,22.8z M31.1,22.3l0.3,0.1c-0.1,0.1-0.1,0.2-0.2,0.3h2.2V23
	c-0.2,0.3-0.6,0.6-1,0.8c0.4,0.2,1,0.3,1.6,0.3c-0.1,0.1-0.2,0.2-0.2,0.3c-0.7-0.1-1.3-0.2-1.7-0.5c-0.5,0.2-1.2,0.4-1.9,0.5
	c0-0.1-0.1-0.2-0.2-0.3c0.7-0.1,1.2-0.2,1.7-0.4c-0.3-0.2-0.5-0.4-0.7-0.7c-0.2,0.2-0.4,0.5-0.7,0.7c-0.1-0.1-0.2-0.2-0.2-0.2
	C30.5,23.2,30.9,22.7,31.1,22.3L31.1,22.3z M30.3,24.6v0.3h1.1c-0.1,0.5-0.6,0.9-1.4,1.1c0.1,0.1,0.1,0.2,0.2,0.3
	c0.9-0.3,1.3-0.8,1.5-1.4H33c0,0.2,0,0.4-0.1,0.6c0,0.2-0.1,0.3-0.4,0.3c-0.2,0-0.5,0-0.8,0c0,0.1,0,0.2,0.1,0.3c0.3,0,0.6,0,0.7,0
	c0.4,0,0.6-0.2,0.7-0.6c0-0.2,0-0.5,0.1-1h-1.6c0-0.1,0-0.3,0.1-0.4h-0.3c0,0.2,0,0.3,0,0.4H30.3L30.3,24.6z M33,23h-1.8
	c0.2,0.3,0.5,0.5,0.8,0.6C32.4,23.4,32.7,23.2,33,23z"/>
</svg>
