<?xml version="1.0" encoding="utf-8"?>
<!-- Generator: Adobe Illustrator 18.0.0, SVG Export Plug-In . SVG Version: 6.00 Build 0)  -->
<!DOCTYPE svg PUBLIC "-//W3C//DTD SVG 1.1//EN" "http://www.w3.org/Graphics/SVG/1.1/DTD/svg11.dtd">
<svg version="1.1" id="图层_1" xmlns="http://www.w3.org/2000/svg" xmlns:xlink="http://www.w3.org/1999/xlink" x="0px" y="0px"
	 viewBox="0 0 59.5 36.8" enable-background="new 0 0 59.5 36.8" xml:space="preserve">
<g>
	<path fill-rule="evenodd" clip-rule="evenodd" fill="#C9CACA" d="M33.4,14.4c0.3-0.4,1-0.4,1-0.7c0-0.9-2.4-1.9-3.6-1.9H30
		c-1.1,0-3.3,1-3.3,1.7c0,0.7,1.4,0.6,1.4,1.4v3h4.6v-3C32.7,14.7,33.1,14.5,33.4,14.4z"/>
	<path fill-rule="evenodd" clip-rule="evenodd" fill="#C9CACA" d="M33.4,14.5l-0.4,0.3v3.4h-5V15c0-1-2.3-1.2-2.3-0.2V15
		c0,0.4,0.6,0.8,1,0.9v4.3h0.6v0.6h0.7v-0.6h5.3v0.6h0.7v-0.6h0.6v-4.3c0.6,0,1-0.5,1-1.1c0-0.4-0.4-0.6-0.8-0.6h-0.4
		C33.7,14.2,33.8,14.4,33.4,14.5z"/>
</g>
<path fill="#9FA0A0" d="M27,22.9V24c0,0.6,0,1.1-0.1,1.4c-0.1,0.3-0.2,0.6-0.4,0.9c-0.1-0.1-0.2-0.2-0.2-0.3
	c0.1-0.2,0.3-0.5,0.3-0.8c0.1-0.3,0.1-0.7,0.1-1.2v-1.4h3v2.2c0,0.5,0,0.8,0.1,1c0,0.1,0.1,0.1,0.1,0.1c0,0,0.1,0,0.1-0.1
	c0-0.1,0-0.4,0.1-0.7c0.1,0,0.2,0.1,0.3,0.1c0,0.3-0.1,0.5-0.1,0.7c0,0.3-0.2,0.4-0.4,0.4c-0.1,0-0.3-0.1-0.4-0.3
	c-0.1-0.2-0.1-0.6-0.1-1.2v-1.9H27L27,22.9z M27.3,23.3c0.2,0.3,0.5,0.7,0.7,1.1c-0.3,0.4-0.6,0.9-0.9,1.2c0.1,0.1,0.2,0.1,0.3,0.2
	c0.3-0.4,0.6-0.8,0.8-1.2c0.2,0.3,0.5,0.7,0.7,1.1l0.3-0.2c-0.3-0.4-0.5-0.8-0.8-1.2c0.2-0.4,0.5-0.8,0.7-1.2l-0.3-0.1
	c-0.2,0.4-0.4,0.7-0.6,1c-0.2-0.3-0.5-0.6-0.7-1L27.3,23.3L27.3,23.3z M32,23.6c0.3-0.4,0.6-0.9,0.8-1.3l0.3,0.1
	c-0.1,0.1-0.1,0.2-0.2,0.4h1.4V23c-0.2,0.3-0.4,0.6-0.8,0.9c0.3,0.2,0.6,0.3,1,0.4c-0.1,0.1-0.1,0.2-0.1,0.3
	c-0.4-0.1-0.8-0.3-1.1-0.5c-0.4,0.2-0.8,0.4-1.3,0.6c0-0.1-0.1-0.2-0.1-0.3c0.4-0.1,0.8-0.3,1.2-0.5c-0.2-0.2-0.4-0.4-0.5-0.6
	c-0.1,0.2-0.2,0.4-0.4,0.5C32.2,23.8,32.1,23.7,32,23.6L32,23.6z M32.3,24.7v1.6h0.3v-0.2H34v0.2h0.3v-1.6H32.3L32.3,24.7z
	 M30.7,24.8c0.1,0.1,0.1,0.2,0.1,0.4c0.2-0.3,0.3-0.6,0.5-1v2.1h0.3V24c0.1,0.1,0.2,0.3,0.4,0.4l0.2-0.2c-0.2-0.2-0.3-0.3-0.5-0.5
	l-0.1,0.1v-0.4h0.5v-0.3h-0.5v-0.8h-0.3v0.8h-0.6v0.3h0.6C31.1,23.9,30.9,24.4,30.7,24.8L30.7,24.8z M34,25v0.8h-1.4V25H34L34,25z
	 M34,23h-1.2c0.2,0.3,0.3,0.5,0.6,0.7C33.6,23.5,33.8,23.3,34,23z"/>
</svg>
